<svg id="Слой_1" data-name="Слой 1" xmlns="http://www.w3.org/2000/svg" viewBox="0 0 254 84"><defs><style>.cls-1{fill:#fff;}</style></defs><rect x="2" y="44" width="162" height="38"/><path d="M4.27,38.22,17.64,5.4H21.1L34.46,38.22H30.12L26.2,28.33H12.48L8.56,38.22ZM19.33,10.5q-2.19,6.12-4.19,11.14l-1.23,3.09H24.79l-1.25-3.09q-2-5.1-4.11-11.14Z"/><path d="M54.09,14.92H59L47.66,25.63,59,38.22H54.28L43.1,25.81h-.05V38.22h-3.8V2.7h3.8V25.31h.05Z"/><path d="M67.5,18.1h.08A11.88,11.88,0,0,1,69,16.59a9,9,0,0,1,1.74-1.2,9.77,9.77,0,0,1,2.06-.79,9.07,9.07,0,0,1,2.38-.3,10.07,10.07,0,0,1,2.65.36,6.36,6.36,0,0,1,4.29,3.79,10.35,10.35,0,0,1,.71,4.17v15.6H79v-15A7,7,0,0,0,78,19a4.07,4.07,0,0,0-3.49-1.43,7.31,7.31,0,0,0-3.83,1.1,10.15,10.15,0,0,0-3.14,3V38.22H63.7V2.7h3.8Z"/><path d="M109.22,38.22h-3.8v-15a8.87,8.87,0,0,0-.33-2.59,4.54,4.54,0,0,0-1-1.75,3.73,3.73,0,0,0-1.49-1,5.7,5.7,0,0,0-2-.32A6.64,6.64,0,0,0,97,18.66a10.93,10.93,0,0,0-3,3V38.22h-3.8V14.92h2.94l.74,3.23h.07a14.21,14.21,0,0,1,1.39-1.51A9,9,0,0,1,97,15.42a8.07,8.07,0,0,1,2-.82,9.17,9.17,0,0,1,2.4-.3,7.15,7.15,0,0,1,4.32,1.25A8,8,0,0,1,108.39,19h.1A12.45,12.45,0,0,1,112,15.54a8.54,8.54,0,0,1,4.64-1.24,10.72,10.72,0,0,1,2.6.35,6.35,6.35,0,0,1,2.53,1.26,7,7,0,0,1,1.92,2.54,9.81,9.81,0,0,1,.76,4.17v15.6h-3.8v-15a8.87,8.87,0,0,0-.33-2.59,4.54,4.54,0,0,0-1-1.75,3.83,3.83,0,0,0-1.5-1,5.7,5.7,0,0,0-2-.32,6.67,6.67,0,0,0-3.71,1.1,10.86,10.86,0,0,0-3,3Z"/><path d="M145.45,35.64h-.1a8.07,8.07,0,0,1-1.17,1.17,9.46,9.46,0,0,1-1.65,1,10.34,10.34,0,0,1-2,.72,9.92,9.92,0,0,1-2.36.27,9.29,9.29,0,0,1-3.1-.5,6.82,6.82,0,0,1-2.43-1.48A6.62,6.62,0,0,1,131,34.49a8.33,8.33,0,0,1-.57-3.17,7.35,7.35,0,0,1,.63-3.11,6.63,6.63,0,0,1,1.75-2.33,8,8,0,0,1,2.71-1.47,11.08,11.08,0,0,1,3.5-.52,19.36,19.36,0,0,1,3.36.32,17.28,17.28,0,0,1,2.75.74h.09V23.33a10.56,10.56,0,0,0-.12-1.69,4.14,4.14,0,0,0-.42-1.3,4.85,4.85,0,0,0-2-1.95,7.76,7.76,0,0,0-3.78-.78,16,16,0,0,0-3.32.33,21,21,0,0,0-3.1.92V15.68a9.17,9.17,0,0,1,1.38-.56,15.82,15.82,0,0,1,1.68-.44c.59-.12,1.21-.21,1.87-.28a18.25,18.25,0,0,1,2-.1,11.8,11.8,0,0,1,5.77,1.25,7.46,7.46,0,0,1,3.23,3.31,6.72,6.72,0,0,1,.53,1.73,13.22,13.22,0,0,1,.16,2.08V38.22h-3.19Zm-.2-7.65q-1-.3-2.49-.57a19,19,0,0,0-3.17-.29,6.13,6.13,0,0,0-3.78,1,3.68,3.68,0,0,0-1.37,3.16,4.8,4.8,0,0,0,.34,1.89,3.64,3.64,0,0,0,.94,1.34,3.85,3.85,0,0,0,1.42.78,5.47,5.47,0,0,0,1.74.26,7.2,7.2,0,0,0,2.27-.35,9.51,9.51,0,0,0,1.87-.85,9.82,9.82,0,0,0,1.39-1c.38-.33.67-.58.84-.76Z"/><path d="M155.07,26.86a17.42,17.42,0,0,1,.47-4.3,13.12,13.12,0,0,1,1.27-3.28,8.88,8.88,0,0,1,1.84-2.34,10.54,10.54,0,0,1,2.18-1.53,9,9,0,0,1,2.29-.85,10.35,10.35,0,0,1,2.2-.26A9,9,0,0,1,169,15a8.56,8.56,0,0,1,2.82,2.09h.08V2.7h3.8V38.22h-2.87l-.79-2.6H172a11.53,11.53,0,0,1-1,1.14,7.12,7.12,0,0,1-1.38,1,7.69,7.69,0,0,1-1.84.75,9.7,9.7,0,0,1-2.42.28,11.3,11.3,0,0,1-3.75-.65,8.52,8.52,0,0,1-3.27-2.09,10.5,10.5,0,0,1-2.32-3.7A15.27,15.27,0,0,1,155.07,26.86Zm4-.05a13.64,13.64,0,0,0,.45,3.64,8.18,8.18,0,0,0,1.31,2.77A6,6,0,0,0,162.91,35a6.47,6.47,0,0,0,2.87.61,6.9,6.9,0,0,0,2.19-.32,7.42,7.42,0,0,0,1.75-.81,6.82,6.82,0,0,0,1.32-1,8.1,8.1,0,0,0,.88-1V20.21a9.36,9.36,0,0,0-2.73-1.92,7.79,7.79,0,0,0-3.33-.73,7,7,0,0,0-2.27.41,5.58,5.58,0,0,0-2.21,1.46,8,8,0,0,0-1.68,2.83A13.27,13.27,0,0,0,159,26.81Z"/><path d="M194.38,35.52a17.49,17.49,0,0,0,3.45-.31,19.66,19.66,0,0,0,3.1-.87V37.5a12,12,0,0,1-3.09,1,20.49,20.49,0,0,1-4,.36,16.56,16.56,0,0,1-4.69-.64,9.31,9.31,0,0,1-6.32-5.77,15.19,15.19,0,0,1-.91-5.54,15.92,15.92,0,0,1,.88-5.53,11.71,11.71,0,0,1,2.35-3.91,9.64,9.64,0,0,1,3.38-2.35,10.52,10.52,0,0,1,7.64-.14A7.53,7.53,0,0,1,199.17,17a10,10,0,0,1,2,3.6,17.24,17.24,0,0,1,.72,5.3v.51c0,.13,0,.45,0,.94H185.75a9.52,9.52,0,0,0,.67,3.79,6.77,6.77,0,0,0,1.84,2.53A7.51,7.51,0,0,0,191,35.08,12.56,12.56,0,0,0,194.38,35.52Zm-2-18a5.91,5.91,0,0,0-2.45.52,6.26,6.26,0,0,0-2,1.4,7,7,0,0,0-1.37,2.07,8,8,0,0,0-.64,2.54h11.92a8.87,8.87,0,0,0-.36-2.57,6.33,6.33,0,0,0-1.06-2.07,4.79,4.79,0,0,0-1.71-1.38A5.22,5.22,0,0,0,192.38,17.56Z"/><path d="M219.38,35.52a17.38,17.38,0,0,0,3.44-.31,19.78,19.78,0,0,0,3.11-.87V37.5a12.19,12.19,0,0,1-3.1,1,20.46,20.46,0,0,1-3.94.36,16.58,16.58,0,0,1-4.7-.64,9.31,9.31,0,0,1-6.32-5.77,15.2,15.2,0,0,1-.9-5.54,15.69,15.69,0,0,1,.88-5.53,11.55,11.55,0,0,1,2.35-3.91,9.52,9.52,0,0,1,3.37-2.35,10.55,10.55,0,0,1,7.65-.14A7.68,7.68,0,0,1,224.17,17a10.14,10.14,0,0,1,2,3.6,17.24,17.24,0,0,1,.72,5.3v.51c0,.13,0,.45,0,.94H210.74a9.51,9.51,0,0,0,.68,3.79,6.66,6.66,0,0,0,1.84,2.53A7.46,7.46,0,0,0,216,35.08,12.69,12.69,0,0,0,219.38,35.52Zm-2-18a5.91,5.91,0,0,0-2.45.52,6.26,6.26,0,0,0-2,1.4,7.25,7.25,0,0,0-1.37,2.07,8.25,8.25,0,0,0-.64,2.54h11.92a8.87,8.87,0,0,0-.36-2.57,6.15,6.15,0,0,0-1.06-2.07,4.79,4.79,0,0,0-1.71-1.38A5.22,5.22,0,0,0,217.37,17.56Z"/><path d="M240.92,34.37c.57-1.71,1.33-3.87,2.29-6.5l4.67-12.95h3.8l-8.81,23.3h-3.94l-8.81-23.3h3.8l4.64,13c.92,2.55,1.67,4.71,2.27,6.5Z"/><path class="cls-1" d="M10.42,75.89,4,50.5H7.44l3,12.84c.75,3.17,1.43,6.33,1.88,8.78h.08c.41-2.52,1.2-5.54,2.07-8.81L17.88,50.5h3.43L24.4,63.38c.71,3,1.39,6,1.77,8.71h.07c.53-2.79,1.25-5.62,2-8.78L31.63,50.5H35L27.79,75.89H24.36l-3.2-13.22a77.14,77.14,0,0,1-1.66-8.29h-.08a79.41,79.41,0,0,1-2,8.29L13.85,75.89Z"/><path class="cls-1" d="M38.64,67.38c.07,4.48,2.94,6.33,6.25,6.33a11.91,11.91,0,0,0,5-.95l.57,2.38a14.93,14.93,0,0,1-6.07,1.13c-5.61,0-9-3.7-9-9.2s3.24-9.83,8.56-9.83c5.95,0,7.53,5.24,7.53,8.59a14.52,14.52,0,0,1-.11,1.55ZM48.36,65c0-2.11-.87-5.38-4.6-5.38-3.35,0-4.82,3.09-5.08,5.38Z"/><path class="cls-1" d="M55.52,75.89c.07-1.24.15-3.09.15-4.71v-22h3.27V60.59H59a6.8,6.8,0,0,1,6.22-3.35c4.52,0,7.72,3.77,7.68,9.31,0,6.51-4.11,9.75-8.17,9.75a6.5,6.5,0,0,1-6.11-3.42h-.11l-.15,3Zm3.42-7.31a5.89,5.89,0,0,0,.16,1.21,5.11,5.11,0,0,0,5,3.88c3.46,0,5.54-2.83,5.54-7,0-3.65-1.89-6.78-5.43-6.78A5.28,5.28,0,0,0,59.13,64a6.84,6.84,0,0,0-.19,1.35Z"/><path class="cls-1" d="M74.31,77.4,84.83,50.08h2.56L76.84,77.4Z"/><path class="cls-1" d="M87.24,77.4,97.75,50.08h2.56L89.76,77.4Z"/><path class="cls-1" d="M103.06,50.84a47.15,47.15,0,0,1,7-.53c4.71,0,8.06,1.09,10.28,3.16s3.58,5,3.58,9.12-1.28,7.54-3.65,9.87S114,76.12,109,76.12a52.36,52.36,0,0,1-6-.31Zm3.28,22.45a20.7,20.7,0,0,0,3.31.19c7,0,10.81-3.92,10.81-10.77,0-6-3.35-9.8-10.28-9.8a18.38,18.38,0,0,0-3.84.34Z"/><path class="cls-1" d="M130,67.38c.08,4.48,2.94,6.33,6.26,6.33a11.89,11.89,0,0,0,5-.95l.57,2.38a14.89,14.89,0,0,1-6.07,1.13c-5.61,0-9-3.7-9-9.2s3.24-9.83,8.55-9.83c6,0,7.54,5.24,7.54,8.59a11.88,11.88,0,0,1-.12,1.55ZM139.75,65c0-2.11-.86-5.38-4.59-5.38-3.36,0-4.83,3.09-5.09,5.38Z"/><path class="cls-1" d="M148.34,57.66l3.58,10.24c.6,1.66,1.09,3.17,1.47,4.67h.11c.42-1.5.95-3,1.55-4.67l3.54-10.24h3.47L154.9,75.89h-3.17L144.8,57.66Z"/></svg>